<?xml version="1.0" ?><svg viewBox="0 0 129.88 129.88" xmlns="http://www.w3.org/2000/svg" xmlns:xlink="http://www.w3.org/1999/xlink"><defs><style>.cls-1{fill:url(#linear-gradient);}.cls-2,.cls-5{fill:none;stroke-linejoin:round;stroke-width:4.6px;}.cls-2,.cls-3,.cls-5{stroke:#fff;}.cls-3{stroke-miterlimit:10;stroke-width:5px;fill:url(#linear-gradient-2);}.cls-4{fill:#fff;}.cls-5{stroke-linecap:round;}</style><linearGradient gradientUnits="userSpaceOnUse" id="linear-gradient" x1="21.01" x2="108.81" y1="89.65" y2="38.96"><stop offset="0.02" stop-color="red"/><stop offset="1" stop-color="#9e005d"/></linearGradient><linearGradient id="linear-gradient-2" x1="42.98" x2="86.84" xlink:href="#linear-gradient" y1="75.49" y2="75.49"/></defs><title/><g data-name="Layer 1" id="Layer_1"><path class="cls-1" d="M86.3,13.61H43.52a13.63,13.63,0,0,0-11.81,6.82L10.32,57.48a13.62,13.62,0,0,0,0,13.64l21.39,37.05A13.63,13.63,0,0,0,43.52,115H86.3a13.65,13.65,0,0,0,11.82-6.82l21.39-37a13.62,13.62,0,0,0,0-13.64l-21.39-37A13.65,13.65,0,0,0,86.3,13.61Z"/><path class="cls-2" d="M80.84,69.26V50.12a15.93,15.93,0,0,0-31.86,0V69.26Z"/><path class="cls-3" d="M43,56.56V72.49a21.93,21.93,0,0,0,43.86,0V56.56Z"/><path class="cls-4" d="M67.87,82a2,2,0,0,0,1.8-2.7l-2.28-5.5a4.9,4.9,0,1,0-5,0l-2.28,5.5A2,2,0,0,0,62,82Z"/><path class="cls-5" d="M76,79.06a11.36,11.36,0,0,0,2-6.46v-8"/></g></svg>